<?xml version="1.0" encoding="utf-8"?>
<!-- Generator: Adobe Illustrator 22.0.1, SVG Export Plug-In . SVG Version: 6.00 Build 0)  -->
<svg version="1.1" id="Calque_1" xmlns="http://www.w3.org/2000/svg" xmlns:xlink="http://www.w3.org/1999/xlink" x="0px" y="0px"
	 viewBox="0 0 50 50" style="enable-background:new 0 0 50 50;" xml:space="preserve">
<style type="text/css">
	.st0{fill:#FFFFFF;}
</style>
<g>
	<g>
		<path class="st0" d="M40.1,28c-1.4,7-7.6,12.1-14.8,12.1c-8.3,0-15.1-6.8-15.1-15.1c0-8.3,6.8-15.1,15.1-15.1
			c4,0,7.7,1.6,10.5,4.3l-4.7,4.7h15.4V3.5l-4.2,4.2c-4.5-4.4-10.6-7-17-7C11.9,0.8,1,11.6,1,25c0,13.4,10.9,24.2,24.2,24.2
			c11.5,0,21.5-8.2,23.8-19.4L40.1,28z"/>
	</g>
</g>
</svg>
